<svg width="48" height="48" viewBox="0 0 48 48" fill="none" xmlns="http://www.w3.org/2000/svg">
<rect x="11.5" y="15.5" width="9" height="9" rx="2.5" stroke="#FF498B" stroke-width="3"/>
<rect x="26.5" y="15.5" width="9" height="9" rx="2.5" stroke="#FF498B" stroke-width="3"/>
<path d="M7.5 11C7.5 6.30558 11.3056 2.5 16 2.5H31C35.6944 2.5 39.5 6.30558 39.5 11V24.5H7.5V11Z" stroke="#1A2F61" stroke-width="3"/>
<mask id="path-4-inside-1_16_396" fill="white">
<path d="M0 27C0 24.7909 1.79086 23 4 23H44C46.2091 23 48 24.7909 48 27V37C48 38.1046 47.1046 39 46 39H2C0.895431 39 0 38.1046 0 37V27Z"/>
</mask>
<path d="M0 27C0 24.7909 1.79086 23 4 23H44C46.2091 23 48 24.7909 48 27V37C48 38.1046 47.1046 39 46 39H2C0.895431 39 0 38.1046 0 37V27Z" stroke="#1A2F61" stroke-width="6" mask="url(#path-4-inside-1_16_396)"/>
<line x1="4.5" y1="39.5" x2="4.5" y2="46.5" stroke="#1A2F61" stroke-width="3" stroke-linecap="round"/>
<line x1="42.5" y1="39.5" x2="42.5" y2="46.5" stroke="#1A2F61" stroke-width="3" stroke-linecap="round"/>
<path d="M41 42L6 42" stroke="#18315F" stroke-width="3" stroke-linecap="round"/>
</svg>
