<svg width="32" height="48" viewBox="0 0 32 48" fill="none" xmlns="http://www.w3.org/2000/svg">
<path d="M30.5 40.5714C30.5 41.6897 29.4627 43.1727 26.682 44.4637C24.0257 45.697 20.2506 46.5 16 46.5C11.7494 46.5 7.97428 45.697 5.31796 44.4637C2.53725 43.1727 1.5 41.6897 1.5 40.5714C1.5 39.4531 2.53725 37.9702 5.31796 36.6791C7.97428 35.4459 11.7494 34.6429 16 34.6429C20.2506 34.6429 24.0257 35.4459 26.682 36.6791C29.4627 37.9702 30.5 39.4531 30.5 40.5714Z" stroke="#1A2F61" stroke-width="3"/>
<path d="M28.2143 13.7921C28.2143 17.3374 26.7483 23.9714 24.3153 29.7411C23.1039 32.6139 21.6946 35.1696 20.1858 36.9802C18.6431 38.8316 17.2216 39.6429 16 39.6429C14.7784 39.6429 13.3568 38.8316 11.8141 36.9802C10.3054 35.1696 8.89606 32.6139 7.68467 29.7411C5.2517 23.9714 3.78571 17.3374 3.78571 13.7921C3.78571 6.99535 9.26222 1.5 16 1.5C22.7378 1.5 28.2143 6.99535 28.2143 13.7921Z" fill="white" stroke="#1A2F61" stroke-width="3"/>
<circle cx="16" cy="14.8571" r="4.21429" stroke="#FF498B" stroke-width="3"/>
</svg>
