<svg width="48" height="41" viewBox="0 0 48 41" fill="none" xmlns="http://www.w3.org/2000/svg">
<path d="M6.51842 16.8356C6.95073 16.0143 7.80252 15.5 8.73072 15.5H39.2693C40.1975 15.5 41.0493 16.0143 41.4816 16.8356L43.5868 20.8356C44.463 22.5004 43.2558 24.5 41.3745 24.5H6.62545C4.74418 24.5 3.53696 22.5004 4.41316 20.8356L6.51842 16.8356Z" stroke="#1A2F61" stroke-width="3"/>
<mask id="path-2-inside-1_19_43" fill="white">
<path d="M13 23C13.5523 23 14 23.4477 14 24L14 37C14 39.2091 12.2091 41 10 41C7.79086 41 6 39.2091 6 37L6 24C6 23.4477 6.44772 23 7 23L13 23Z"/>
</mask>
<path d="M13 23C13.5523 23 14 23.4477 14 24L14 37C14 39.2091 12.2091 41 10 41C7.79086 41 6 39.2091 6 37L6 24C6 23.4477 6.44772 23 7 23L13 23Z" stroke="#1A2F61" stroke-width="6" mask="url(#path-2-inside-1_19_43)"/>
<mask id="path-3-inside-2_19_43" fill="white">
<path d="M42 23C42.5523 23 43 23.4477 43 24L43 37C43 39.2091 41.2091 41 39 41C36.7909 41 35 39.2091 35 37L35 24C35 23.4477 35.4477 23 36 23L42 23Z"/>
</mask>
<path d="M42 23C42.5523 23 43 23.4477 43 24L43 37C43 39.2091 41.2091 41 39 41C36.7909 41 35 39.2091 35 37L35 24C35 23.4477 35.4477 23 36 23L42 23Z" stroke="#1A2F61" stroke-width="6" mask="url(#path-3-inside-2_19_43)"/>
<path d="M16 9L16 14" stroke="#1A2F61" stroke-width="3" stroke-linecap="round"/>
<path d="M32 9L32 14" stroke="#1A2F61" stroke-width="3" stroke-linecap="round"/>
<mask id="path-6-inside-3_19_43" fill="white">
<path d="M19 -4.37114e-08C19.5523 -1.95703e-08 20 0.447715 20 1L20 6C20 8.20914 18.2091 10 16 10C13.7909 10 12 8.20914 12 6L12 1C12 0.447715 12.4477 -3.30121e-07 13 -3.0598e-07L19 -4.37114e-08Z"/>
</mask>
<path d="M19 -4.37114e-08C19.5523 -1.95703e-08 20 0.447715 20 1L20 6C20 8.20914 18.2091 10 16 10C13.7909 10 12 8.20914 12 6L12 1C12 0.447715 12.4477 -3.30121e-07 13 -3.0598e-07L19 -4.37114e-08Z" stroke="#FF498B" stroke-width="6" mask="url(#path-6-inside-3_19_43)"/>
<mask id="path-7-inside-4_19_43" fill="white">
<path d="M35 -4.37114e-08C35.5523 -1.95703e-08 36 0.447715 36 1L36 6C36 8.20914 34.2091 10 32 10C29.7909 10 28 8.20914 28 6L28 1C28 0.447715 28.4477 -3.30121e-07 29 -3.0598e-07L35 -4.37114e-08Z"/>
</mask>
<path d="M35 -4.37114e-08C35.5523 -1.95703e-08 36 0.447715 36 1L36 6C36 8.20914 34.2091 10 32 10C29.7909 10 28 8.20914 28 6L28 1C28 0.447715 28.4477 -3.30121e-07 29 -3.0598e-07L35 -4.37114e-08Z" stroke="#FF498B" stroke-width="6" mask="url(#path-7-inside-4_19_43)"/>
</svg>
