<svg width="46" height="46" viewBox="0 0 46 46" fill="none" xmlns="http://www.w3.org/2000/svg">
<path d="M21.0979 5.8541C21.6966 4.01148 24.3034 4.01148 24.9021 5.8541L27.7148 14.5106C27.9825 15.3347 28.7505 15.8926 29.6169 15.8926H38.7189C40.6564 15.8926 41.4619 18.3718 39.8945 19.5106L32.5308 24.8607C31.8298 25.37 31.5365 26.2727 31.8043 27.0967L34.6169 35.7533C35.2157 37.5959 33.1067 39.1282 31.5393 37.9894L24.1756 32.6393C23.4746 32.13 22.5254 32.13 21.8244 32.6393L14.4607 37.9894C12.8933 39.1282 10.7843 37.5959 11.3831 35.7533L14.1957 27.0967C14.4635 26.2727 14.1702 25.37 13.4692 24.8607L6.1055 19.5106C4.53807 18.3718 5.34362 15.8926 7.28107 15.8926H16.3831C17.2495 15.8926 18.0175 15.3347 18.2852 14.5106L21.0979 5.8541Z" fill="#FFCC47"/>
</svg>
