<svg width="48" height="48" viewBox="0 0 48 48" fill="none" xmlns="http://www.w3.org/2000/svg">
<path d="M2.16666 11.4286C2.16666 7.83872 5.07681 4.92857 8.66666 4.92857L40 4.92857C43.5898 4.92857 46.5 7.83872 46.5 11.4286L46.5 29.2381C46.5 32.8279 43.5898 35.7381 40 35.7381L8.66665 35.7381C5.0768 35.7381 2.16666 32.8279 2.16666 29.2381L2.16666 11.4286Z" stroke="#1A2F61" stroke-width="3"/>
<path d="M20.9524 42.873L20.9524 36.1111" stroke="#18315F" stroke-width="3" stroke-linecap="round"/>
<path d="M27.7143 42.873L27.7143 36.1111" stroke="#18315F" stroke-width="3" stroke-linecap="round"/>
<path d="M12 44L36.7937 44" stroke="#18315F" stroke-width="3" stroke-linecap="round"/>
<path d="M30.25 19.7098C30.5833 19.9023 30.5833 20.3834 30.25 20.5759L21.0357 25.8957C20.7024 26.0882 20.2857 25.8476 20.2857 25.4627L20.2857 14.823C20.2857 14.4381 20.7024 14.1975 21.0357 14.39L30.25 19.7098Z" stroke="#FF498B" stroke-width="3"/>
</svg>
