<svg width="48" height="36" viewBox="0 0 48 36" fill="none" xmlns="http://www.w3.org/2000/svg">
<mask id="path-1-inside-1_7_35" fill="white">
<path fill-rule="evenodd" clip-rule="evenodd" d="M17.919 0C17.0691 0 16.312 0.537124 16.0312 1.3393L14.4 6H8C3.58172 6 0 9.58172 0 14V28C0 32.4183 3.58172 36 8 36H40C44.4183 36 48 32.4183 48 28V14C48 9.58172 44.4183 6 40 6H33.6L31.9688 1.3393C31.688 0.537126 30.9309 0 30.081 0H17.919Z"/>
</mask>
<path d="M16.0312 1.3393L18.8628 2.33035V2.33035L16.0312 1.3393ZM14.4 6V9H16.5284L17.2316 6.99105L14.4 6ZM33.6 6L30.7684 6.99105L31.4716 9H33.6V6ZM31.9688 1.3393L29.1372 2.33035V2.33035L31.9688 1.3393ZM18.8628 2.33035C18.7224 2.73144 18.3439 3 17.919 3V-3C15.7942 -3 13.9016 -1.65719 13.1997 0.348249L18.8628 2.33035ZM17.2316 6.99105L18.8628 2.33035L13.1997 0.348246L11.5684 5.00895L17.2316 6.99105ZM8 9H14.4V3H8V9ZM3 14C3 11.2386 5.23858 9 8 9V3C1.92487 3 -3 7.92487 -3 14H3ZM3 28V14H-3V28H3ZM8 33C5.23858 33 3 30.7614 3 28H-3C-3 34.0751 1.92487 39 8 39V33ZM40 33H8V39H40V33ZM45 28C45 30.7614 42.7614 33 40 33V39C46.0751 39 51 34.0751 51 28H45ZM45 14V28H51V14H45ZM40 9C42.7614 9 45 11.2386 45 14H51C51 7.92487 46.0751 3 40 3V9ZM33.6 9H40V3H33.6V9ZM29.1372 2.33035L30.7684 6.99105L36.4316 5.00895L34.8003 0.348248L29.1372 2.33035ZM30.081 3C29.6561 3 29.2776 2.73144 29.1372 2.33035L34.8003 0.348251C34.0984 -1.65719 32.2058 -3 30.081 -3V3ZM17.919 3H30.081V-3H17.919V3Z" fill="#18315F" mask="url(#path-1-inside-1_7_35)"/>
<circle cx="24" cy="22" r="6.5" stroke="#FF498B" stroke-width="3"/>
<path d="M39.5 12.5H34.5" stroke="#18315F" stroke-width="3" stroke-linecap="round"/>
</svg>
